<svg width="119" height="34" viewBox="0 0 119 34" fill="none" xmlns="http://www.w3.org/2000/svg">
<path d="M20.887 23.6603H2.77329C1.24427 23.6603 0 22.416 0 20.887V2.77329C0 1.24427 1.24427 0 2.77329 0H20.887C22.416 0 23.6603 1.24427 23.6603 2.77329V20.887C23.6603 22.416 22.416 23.6603 20.887 23.6603ZM2.77329 1.05524C1.82573 1.05524 1.05763 1.82573 1.05763 2.77329V20.887C1.05763 21.8345 1.82812 22.6026 2.77329 22.6026H20.887C21.8345 22.6026 22.605 21.8321 22.605 20.887V2.77329C22.605 1.82573 21.8345 1.05524 20.887 1.05524H2.77329Z" fill="#9388FF"/>
<path d="M32.887 32.0017C32.753 32.0017 32.6167 31.949 32.5138 31.8461L11.4569 10.7869C11.2511 10.5811 11.2511 10.2461 11.4569 10.0403C11.6627 9.83454 11.9977 9.83454 12.2035 10.0403L33.2627 31.0996C33.4685 31.3054 33.4685 31.6404 33.2627 31.8461C33.1598 31.949 33.0234 32.0017 32.8894 32.0017H32.887Z" fill="#9388FF"/>
<path d="M30.1113 33.5068C29.9773 33.5068 29.8409 33.4541 29.738 33.3512L9.98045 13.5913C9.77467 13.3855 9.77467 13.0505 9.98045 12.8447C10.1862 12.6389 10.5212 12.6389 10.727 12.8447L30.4846 32.6047C30.6904 32.8104 30.6904 33.1454 30.4846 33.3512C30.3817 33.4541 30.2453 33.5068 30.1113 33.5068Z" fill="#9388FF"/>
<path d="M33.009 27.953C32.875 27.953 32.7386 27.9004 32.6357 27.7975L15.6299 10.7869C15.4242 10.5811 15.4242 10.2461 15.6299 10.0403C15.8357 9.83454 16.1707 9.83454 16.3765 10.0403L33.3847 27.0509C33.5905 27.2567 33.5905 27.5917 33.3847 27.7975C33.2818 27.9004 33.1454 27.953 33.0114 27.953H33.009Z" fill="#9388FF"/>
<path d="M33.009 23.6603C32.875 23.6603 32.7386 23.6076 32.6357 23.5047L19.8868 10.7534C19.681 10.5476 19.681 10.2126 19.8868 10.0068C20.0926 9.80101 20.4275 9.80101 20.6333 10.0068L33.3823 22.7582C33.5881 22.964 33.5881 23.2989 33.3823 23.5047C33.2794 23.6076 33.143 23.6603 33.009 23.6603Z" fill="#9388FF"/>
<path d="M25.9334 33.5403C25.7994 33.5403 25.663 33.4876 25.5601 33.3847L9.98045 17.8027C9.77467 17.5969 9.77467 17.2619 9.98045 17.0561C10.1862 16.8503 10.5212 16.8503 10.727 17.0561L26.3067 32.6382C26.5125 32.844 26.5125 33.179 26.3067 33.3847C26.2038 33.4876 26.0674 33.5403 25.9334 33.5403Z" fill="#9388FF"/>
<path d="M21.7292 33.5403C21.5952 33.5403 21.4588 33.4876 21.356 33.3847L9.98045 22.0092C9.77467 21.8034 9.77467 21.4684 9.98045 21.2627C10.1862 21.0569 10.5212 21.0569 10.727 21.2627L22.1025 32.6382C22.3083 32.8439 22.3083 33.1789 22.1025 33.3847C21.9996 33.4876 21.8632 33.5403 21.7292 33.5403Z" fill="#9388FF"/>
<path d="M17.5178 33.5402C17.3815 33.5402 17.2475 33.4876 17.1446 33.3847L9.98283 26.2206C9.77705 26.0148 9.77705 25.6798 9.98283 25.474C10.1886 25.2682 10.5236 25.2682 10.7294 25.474L17.8911 32.6381C18.0969 32.8439 18.0969 33.1789 17.8911 33.3847C17.7882 33.4876 17.6518 33.5402 17.5178 33.5402Z" fill="#9388FF"/>
<path d="M33.009 19.4465C32.875 19.4465 32.7386 19.3939 32.6357 19.291L24.1316 10.7869C23.9259 10.5811 23.9259 10.2461 24.1316 10.0403C24.3374 9.83454 24.6724 9.83454 24.8782 10.0403L33.3823 18.5444C33.5881 18.7502 33.5881 19.0852 33.3823 19.291C33.2794 19.3939 33.143 19.4465 33.009 19.4465Z" fill="#9388FF"/>
<path d="M13.2778 33.5403C13.1414 33.5403 13.0074 33.4876 12.9045 33.3847L9.99723 30.4751C9.79145 30.2693 9.79145 29.9343 9.99723 29.7285C10.203 29.5227 10.538 29.5227 10.7438 29.7285L13.6511 32.6382C13.8569 32.844 13.8569 33.179 13.6511 33.3847C13.5482 33.4876 13.4118 33.5403 13.2778 33.5403Z" fill="#9388FF"/>
<path d="M33.0114 15.2567C32.875 15.2567 32.741 15.204 32.6381 15.1011L28.2856 10.7462C28.0798 10.5404 28.0798 10.2054 28.2856 9.99964C28.4914 9.79386 28.8264 9.79386 29.0321 9.99964L33.3847 14.3546C33.5905 14.5604 33.5905 14.8954 33.3847 15.1011C33.2818 15.204 33.1454 15.2567 33.0114 15.2567Z" fill="#9388FF"/>
<path d="M40.3359 3.91458H48.0216C51.2065 3.91458 53.6448 4.575 55.2791 5.86474C56.9134 7.18319 57.7461 9.22187 57.7461 12.0023V15.4145C57.7461 18.1399 56.8847 20.1762 55.1929 21.5521C53.5873 22.8993 51.2065 23.5884 48.0216 23.5884H40.3359V3.91458ZM47.9379 21.0951C50.2326 21.0951 51.7808 20.6931 52.9293 19.6905C54.0468 18.6855 54.5923 17.2522 54.5923 15.3595V12.0598C54.5923 10.0809 54.0468 8.64759 52.9867 7.72875C51.8693 6.78119 50.3475 6.43902 47.9666 6.43902H43.5207V21.0951H47.9379Z" fill="#121826"/>
<path d="M59.5814 17.0225V15.4743C59.5814 13.0934 60.3279 11.2869 61.8474 10.1096C63.1371 9.04718 65.0035 8.53272 67.4131 8.53272C69.8227 8.53272 71.6867 9.04957 72.9764 10.1096C74.4959 11.2845 75.2424 13.0934 75.2424 15.4743V17.0225C75.2424 19.5756 74.4384 21.2386 72.9477 22.3872C71.658 23.3347 69.8203 23.8205 67.4131 23.8205C65.0059 23.8205 63.1395 23.3323 61.8761 22.3872C60.3854 21.2123 59.5814 19.5469 59.5814 17.0225ZM72.1748 16.8502V15.704C72.1748 13.9836 71.7441 12.835 70.8564 12.0334C70.0811 11.3443 68.9349 10.9997 67.4155 10.9997C65.896 10.9997 64.7475 11.3443 63.9746 12.0334C63.0845 12.8374 62.6562 13.9836 62.6562 15.704V16.8502C62.6562 18.5993 63.0581 19.6905 63.9459 20.3772C64.6637 21.0376 65.8386 21.3535 67.4155 21.3535C68.9924 21.3535 70.0835 21.0376 70.8564 20.3772C71.7752 19.6881 72.1748 18.5993 72.1748 16.8502Z" fill="#121826"/>
<path d="M76.7907 16.8789V15.4743C76.7907 13.036 77.566 11.2581 79.0854 10.0809C80.4039 9.04718 82.1842 8.53272 84.4214 8.53272C85.5987 8.53272 86.8023 8.705 87.9772 9.04957C88.9247 9.308 89.9273 9.79613 90.9323 10.5116L89.7 12.6053C88.8673 12.0597 88.037 11.6865 87.2617 11.428C86.3716 11.1696 85.5126 11.026 84.6799 11.026C83.103 11.026 81.8109 11.4568 81.038 12.2584C80.2627 13.0336 79.8607 14.1798 79.8607 15.6992V16.6468C79.8607 18.1662 80.2627 19.3435 81.038 20.1164C81.8133 20.8917 83.103 21.3224 84.6799 21.3224C85.5987 21.3224 86.4577 21.1788 87.2617 20.9204C88.037 20.662 88.8673 20.2887 89.7 19.7455L90.9323 21.8392C90.0135 22.4996 89.0396 23.0165 87.9772 23.33C86.8597 23.6458 85.6537 23.8181 84.4214 23.8181C82.1842 23.8181 80.4063 23.3012 79.0854 22.2699C77.566 21.0927 76.7907 19.3148 76.7907 16.8765V16.8789Z" fill="#121826"/>
<path d="M97.2996 8.76244H101.487V11.2582H97.2996V23.5908H94.2296V11.2582H91.5616V8.76244H94.2296V7.72874C94.2296 4.31657 95.9213 2.7373 99.7379 2.7373H101.487V5.23302H100.082C98.1036 5.23302 97.2996 5.95087 97.2996 7.98717V8.76244Z" fill="#121826"/>
<path d="M119 8.76242C116.849 14.3569 114.554 19.9202 112.116 25.4859C110.683 28.6707 109.477 29.5298 107.038 29.5298H104.571V27.034H106.177C107.811 27.034 108.558 26.6895 109.161 25.5433L109.879 24.0239C107.842 19.6354 105.548 14.5578 103.052 8.76482H106.464C108.041 12.6364 109.62 16.5104 111.254 20.382H111.427C112.86 16.4817 114.267 12.6077 115.614 8.76482H119V8.76242Z" fill="#121826"/>
</svg>
